<svg xmlns="http://www.w3.org/2000/svg" width="19.544" height="19.5"><g id="call-answer" transform="translate(0 -.394)"><g id="Group_100" data-name="Group 100" transform="translate(0 .394)"><g id="Group_99" data-name="Group 99"><path id="Path_9" data-name="Path 9" d="M19.106 15.817L16.087 12.8a1.574 1.574 0 00-2.219.042l-1.521 1.52-.3-.167a15.132 15.132 0 01-3.657-2.647 15.217 15.217 0 01-2.65-3.664c-.056-.1-.11-.2-.164-.293L6.6 6.572l.5-.5a1.572 1.572 0 00.04-2.219L4.12.832A1.572 1.572 0 001.9.873l-.851.856.023.023a4.919 4.919 0 00-.7 1.236 5.126 5.126 0 00-.311 1.254c-.4 3.3 1.111 6.324 5.209 10.421 5.664 5.664 10.23 5.237 10.43 5.216a5.1 5.1 0 001.258-.316 4.9 4.9 0 001.232-.7l.019.017.862-.844a1.575 1.575 0 00.035-2.219z" transform="translate(0 -.394)" fill="#2fc1e1"/></g></g></g></svg>