<svg xmlns="http://www.w3.org/2000/svg" width="201" height="47.3"><g id="logogk-white" transform="translate(0 -5.1)"><g id="_1912327045040" fill="#fff"><path id="Path_88" data-name="Path 88" d="M.2 37.5V7.7h6.6v23z" fill-rule="evenodd"/><path id="Path_89" data-name="Path 89" d="M.2 7.7H29l-6.8 6.8H.2z" fill-rule="evenodd"/><path id="Path_90" data-name="Path 90" d="M33.9 21.7L4.1 52.4l9.1-.1 20.7-21.5z" fill-rule="evenodd"/><path id="Path_91" data-name="Path 91" d="M33.8 35.3l.1 17.1H17.7z" fill-rule="evenodd"/><path id="Path_92" data-name="Path 92" d="M0 42.6V52l36.2-37.5V5.1z" fill-rule="evenodd"/><path id="Path_93" data-name="Path 93" d="M60.2 24.1H48.8v20.6h4.6v-16h6.8v-4.6zm6.8 16v-3.7h7.1V32H67v-3.4h7.9v-4.5H62.5v20.6H75v-4.5h-8zm21.7-16V32h-6.3v-7.9h-4.6v20.6h4.6v-8.2h6.3v8.2h4.6V24.1z"/><path id="Path_94" data-name="Path 94" d="M113.1 44.6l-7-10.5 6.7-10h-5.2l-6.1 8.9v-8.9H97v20.6h4.6v-9.5l6.4 9.5h5.1zm9.6-20.5h-7.6v20.6h4.6v-6.4h3a7.1 7.1 0 000-14.2zm0 9.7h-3v-5.3h3a2.422 2.422 0 012.4 2.6 2.51 2.51 0 01-2.4 2.7zm14.1 6.3v-3.7h7.1V32h-7.1v-3.4h7.8v-4.5h-12.4v20.6h12.5v-4.5h-7.9zm26.5 0v-16H150v9.2c0 3.5-.7 5.5-1.6 6.8h-2v8.5h4.6v-4h10v4h4.6v-8.5zm-10 0a14.342 14.342 0 001.3-6.8v-4.9h4.2v11.7zm26 4.5h4.6V24.1h-3.4l-7.7 11.2V24.1h-4.6v20.6h3.4l7.7-11.2zM201 24.1h-14.8v4.5h5.1v16h4.6v-16h5.1v-4.5z"/></g></g></svg>