<svg xmlns="http://www.w3.org/2000/svg" width="201" height="58" viewBox="0 0 20100 5782" shape-rendering="geometricPrecision" text-rendering="geometricPrecision" image-rendering="optimizeQuality" fill-rule="evenodd" clip-rule="evenodd"><defs><style>.fil0{fill:#0076ae}</style></defs><g id="Слой_x0020_1"><g id="_1912327045040"><path class="fil0" d="M18 3233V257h662v2300z"/><path class="fil0" d="M18 257h2880l-674 682H18zm3367 1397L412 4732l912-13 2061-2151zm-7 1360l7 1712-1612 6z"/><path fill="#00b3db" d="M0 3748v939L3622 940V0z"/><path d="M6016 1895H4876v2056h457V2346h683v-451zm686 1605v-366h714v-447h-714v-341h786v-451H6245v2056h1257v-451h-800zm2169-1605v787h-629v-787h-457v2056h457v-817h629v817h457V1895h-457z" fill="#0076ae" fill-rule="nonzero"/><path d="M11313 3951l-702-1055 674-1001h-519l-612 893v-893h-457v2056h457v-952l640 952h519zm955-2056h-755v2056h455v-645h300c395 0 700-314 700-707 0-390-305-704-700-704zm0 969h-300v-530h300c140 0 243 115 243 265s-103 265-243 265zm1412 636v-366h714v-447h-714v-341h785v-451h-1240v2056h1254v-451h-799zm2654 0V1895h-1338v922c0 349-67 548-157 683h-202v846h457v-395h997v395h457v-846h-214zm-1009 0c71-133 128-339 128-678v-488h424v1166h-552zm2606 451h457V1895h-342l-769 1116V1895h-457v2056h342l769-1116v1116zm2169-2056h-1483v451h514v1605h455V2346h514v-451z" fill="#00b3db" fill-rule="nonzero"/><path d="M9879 5429c7-65 27-124 59-178s72-95 120-123c48-27 100-41 156-40 55 1 102 16 141 46 39 29 68 69 86 120 17 51 24 107 18 169l-1 12c-13 105-50 190-113 254-62 63-137 94-224 92-75-1-135-29-180-82-44-54-67-126-66-214l2-35 2-21zm72 21c-6 49-2 94 10 135 13 41 33 74 61 97 27 24 61 36 103 37 44 1 85-10 122-34 37-23 67-56 91-99s39-90 46-142l2-20c7-80-5-145-37-195s-78-76-138-77c-66-3-123 23-171 76s-77 123-88 211l-1 11zm862 269c49 2 92-11 129-40 38-29 62-68 75-116h69c-12 66-44 120-97 160-52 41-112 60-179 58-54-1-99-16-136-44-37-29-63-68-79-118-17-50-22-107-16-170l2-26c5-43 16-85 32-126s38-77 65-108c28-32 60-57 97-75 38-18 81-27 128-26 68 2 123 25 163 69 40 45 59 101 57 169h-70c1-51-13-93-40-124-28-32-65-49-113-50-51-2-96 13-135 44s-69 75-89 133c-19 57-29 118-27 182 1 66 16 117 44 153 29 35 69 54 120 55zm879 50h-74l54-306h-348l-53 306h-74l117-668h73l-52 300h347l53-300h73l-116 668zm214-340c7-65 27-124 59-178s72-95 120-123c48-27 100-41 156-40 55 1 102 16 141 46 39 29 67 69 85 120s24 107 19 169l-2 12c-12 105-49 190-112 254-62 63-137 94-224 92-75-1-135-29-180-82-45-54-67-126-66-214l2-35 2-21zm71 21c-5 49-2 94 11 135s33 74 60 97c28 24 62 36 103 37 45 1 86-10 122-34 37-23 68-56 91-99 24-43 40-90 47-142l2-20c7-80-5-145-37-195s-78-76-139-77c-66-3-123 23-170 76-49 53-78 123-89 211l-1 11zm612 319l116-668 223 1c81 0 142 15 184 45 41 30 60 72 56 127-3 36-16 66-40 93-24 26-57 46-100 61 37 9 65 28 86 56 20 29 29 60 27 95-4 59-29 105-77 139-47 34-111 51-191 51h-284zm127-308l-43 246h203c55 0 100-11 135-34 34-23 53-55 57-96 5-35-6-62-32-83-25-20-62-31-109-32l-211-1zm10-62l178 2c58-2 103-13 136-35s51-52 55-90c8-74-46-111-162-111l-166-1-41 235zm963 370c-2-16-3-31-2-47l6-46c-31 33-66 59-106 78s-83 28-129 27c-56 0-102-18-137-53-36-35-51-79-48-132 4-44 19-82 46-114 27-33 65-58 115-76s105-27 167-27l137 1 11-77c5-46-5-82-30-110-24-28-61-42-109-44-49-1-91 11-127 36s-59 58-68 99h-72c8-58 38-106 90-143s113-55 184-54c69 2 122 23 159 62 37 40 53 92 46 156l-56 336-5 54c-1 22 1 44 5 66l-1 8h-76zm-219-52c46 2 89-9 130-33 42-23 76-56 103-100l26-148-119-1c-74 0-135 14-183 41-47 26-73 64-78 114-4 37 6 67 28 90 23 24 54 36 93 37zm966 52h-74l54-306h-348l-53 306h-73l116-668h73l-52 300h347l53-300h73l-116 668zm611 0c-2-16-2-31-2-47l6-46c-31 33-66 59-106 78-39 19-82 28-129 27-56 0-102-18-137-53s-51-79-47-132c3-44 18-82 45-114 27-33 66-58 115-76 50-18 106-27 168-27l136 1 11-77c5-46-5-82-29-110-25-28-61-42-110-44-48-1-90 11-127 36-36 25-58 58-67 99h-72c8-58 38-106 90-143s113-55 184-54c69 2 122 23 159 62 37 40 52 92 45 156l-55 336-5 54c-2 22 0 44 5 66l-2 8h-76zm-218-52c45 2 88-9 130-33 41-23 76-56 103-100l25-148-118-1c-75 0-136 14-183 41-48 26-74 64-79 114-4 37 6 67 29 90 23 24 54 36 93 37zm778 52l116-668 223 1c81 0 142 15 184 45 41 30 60 72 56 127-3 36-16 66-40 93-24 26-57 46-100 61 37 9 66 28 86 56 20 29 29 60 27 95-4 59-29 105-76 139-48 34-112 51-192 51h-284zm127-308l-43 246h203c56 0 100-11 135-34 34-23 54-55 58-96 4-35-7-62-32-83-26-20-62-31-110-32l-211-1zm10-62l178 2c58-2 103-13 136-35s52-52 55-90c8-74-46-111-162-111l-166-1-41 235zm1395 370h-548l9-60 389-385c82-82 127-157 135-223 7-51-4-94-31-128s-67-51-120-53c-58-2-108 17-150 55-41 38-68 89-78 154h-71c9-80 42-146 98-197 55-51 123-76 203-75 75 2 132 25 173 69s58 100 51 169c-8 81-59 168-153 263l-353 349h456l-10 62zm398 12c-48-1-89-14-122-38-34-24-58-60-73-107-15-46-22-99-20-156l4-67 26-175c20-126 57-221 112-286 55-66 128-97 217-95 73 2 127 28 164 81 36 52 53 124 51 218-1 30-3 58-7 86l-25 159c-21 131-60 228-116 290-55 63-126 93-211 90zm287-682c-8-117-58-177-147-180-66-2-121 23-163 77-43 53-72 130-87 232l-27 174c-6 50-8 94-6 133 4 59 18 104 43 135 26 32 60 48 104 49 62 3 114-20 156-69 42-50 72-123 89-221l30-190c8-50 11-97 8-140zm399 682c-48-1-89-14-122-38-34-24-58-60-73-107-15-46-22-99-20-156l4-67 26-175c20-126 57-221 112-286 55-66 128-97 217-95 73 2 128 28 164 81 36 52 53 124 51 218-1 30-3 58-7 86l-25 159c-21 131-60 228-116 290-55 63-126 93-211 90zm287-682c-8-117-57-177-147-180-66-2-121 23-163 77-43 53-72 130-87 232l-27 174c-6 50-8 94-5 133 3 59 17 104 42 135 26 32 60 48 104 49 62 3 114-20 156-69 42-50 72-123 90-221l29-190c8-50 11-97 8-140zm399 682c-48-1-89-14-122-38s-58-60-73-107c-15-46-22-99-20-156l4-67 27-175c19-126 56-221 111-286 55-66 128-97 217-95 73 2 128 28 164 81 37 52 53 124 51 218-1 30-3 58-7 86l-25 159c-21 131-60 228-116 290-55 63-125 93-211 90zm287-682c-8-117-57-177-147-180-66-2-121 23-163 77-43 53-71 130-87 232l-27 174c-6 50-8 94-5 133 3 59 17 104 42 135 26 32 61 48 105 49 61 3 113-20 155-69 42-50 72-123 90-221l29-190c8-50 11-97 8-140zm655 66h-328l-105 604h-73l116-668h401l-11 64zm14 559c1-14 7-27 17-37 11-10 23-15 37-16 15 0 27 5 37 15 9 11 14 23 12 38-1 15-6 27-17 36-10 9-23 14-37 14-14 1-26-4-36-13-10-10-14-22-13-37z" fill="#b2b3b3" fill-rule="nonzero"/></g></g></svg>