<svg xmlns="http://www.w3.org/2000/svg" width="49.608" height="44.423"><g id="funds" transform="translate(0 -23.098)" fill="#00b3db"><path id="Path_100" data-name="Path 100" d="M37.926 41.771v-.028a1.107 1.107 0 00-.027-.135 1.118 1.118 0 00-.043-.124l-.015-.034c-.013-.029-.028-.058-.043-.087l-.021-.037-.011-.02-.053-.076-.01-.014a1.091 1.091 0 00-.09-.1l-.023-.016a1.13 1.13 0 00-.086-.075L37.481 41a1.138 1.138 0 00-.124-.081l-16.535-9.4 9.52-5.995L46.3 34.6l-6.722 4.233a1.122 1.122 0 001.2 1.9l8.307-5.233a1.122 1.122 0 00-.043-1.925L30.868 23.244a1.122 1.122 0 00-1.153.026l-11.668 7.347h-.007l-5.83 3.671-.01.012L.527 41.65a1.122 1.122 0 00.043 1.925l18.175 10.331a1.122 1.122 0 001.155-.026l8.308-5.232a1.122 1.122 0 00-1.2-1.9l-7.74 4.874L3.309 42.55l9.52-5.995 17.023 9.676v12.815a1.122 1.122 0 001.72.95l5.838-3.676a1.122 1.122 0 00.524-.95V41.88q-.002-.053-.008-.109zM32.1 57.014V45.578a1.122 1.122 0 00-.568-.976L14.985 35.2l3.683-2.319 15.96 9.072-1.4.88a1.122 1.122 0 101.2 1.9l1.264-.8v10.818z" transform="translate(-.002)"/><path id="Path_101" data-name="Path 101" d="M356.807 155.314l-8.308 5.232a1.122 1.122 0 101.2 1.9l8.301-5.232a1.122 1.122 0 10-1.2-1.9z" transform="translate(-308.92 -117.224)"/><path id="Path_102" data-name="Path 102" d="M27.007 232.131L19.267 237l-17.59-10a1.122 1.122 0 00-1.109 1.951l18.175 10.331a1.122 1.122 0 001.153-.026l8.304-5.226a1.122 1.122 0 00-1.2-1.9z" transform="translate(0 -180.892)"/><path id="Path_103" data-name="Path 103" d="M356.807 195.314l-8.308 5.232a1.122 1.122 0 101.2 1.9l8.301-5.233a1.122 1.122 0 10-1.2-1.9z" transform="translate(-308.92 -152.734)"/><path id="Path_104" data-name="Path 104" d="M27.007 272.131L19.267 277l-17.59-10a1.122 1.122 0 00-1.109 1.951l18.175 10.331a1.122 1.122 0 001.153-.026l8.304-5.226a1.122 1.122 0 00-1.2-1.9z" transform="translate(0 -216.403)"/><path id="Path_105" data-name="Path 105" d="M356.807 235.314l-8.308 5.232a1.122 1.122 0 101.2 1.9l8.301-5.232a1.122 1.122 0 10-1.2-1.9z" transform="translate(-308.92 -188.246)"/><path id="Path_106" data-name="Path 106" d="M27.007 312.131L19.267 317l-17.59-10a1.122 1.122 0 00-1.109 1.951l18.175 10.331a1.122 1.122 0 001.153-.026l8.304-5.226a1.122 1.122 0 00-1.2-1.9z" transform="translate(0 -251.914)"/></g></svg>