<svg xmlns="http://www.w3.org/2000/svg" width="22.05" height="22"><g id="call-answer" transform="translate(0 -.394)"><g id="Сгруппировать_104" data-name="Сгруппировать 104" transform="translate(0 .394)"><g id="Сгруппировать_103" data-name="Сгруппировать 103"><path id="Контур_74" data-name="Контур 74" d="M21.555 17.794l-3.405-3.405a1.776 1.776 0 00-2.5.047l-1.716 1.715-.339-.188a17.072 17.072 0 01-4.126-2.984 17.167 17.167 0 01-2.994-4.135c-.064-.115-.124-.226-.185-.331l1.151-1.15.567-.563a1.774 1.774 0 00.046-2.5L4.649.888a1.774 1.774 0 00-2.5.047l-.96.965.026.026a5.55 5.55 0 00-.794 1.395 5.783 5.783 0 00-.352 1.415C-.38 8.463 1.323 11.87 5.946 16.493c6.39 6.39 11.54 5.907 11.762 5.883a5.754 5.754 0 001.419-.356 5.531 5.531 0 001.39-.787l.021.019.972-.952a1.777 1.777 0 00.045-2.506z" transform="translate(0 -.394)" fill="#ffa53e"/></g></g></g></svg>