<svg xmlns="http://www.w3.org/2000/svg" width="41.835" height="43.507"><g id="percentage-discount" transform="translate(-6.161)"><g id="Layer_5_90_" transform="translate(6.161)"><g id="Group_117" data-name="Group 117" fill="#00b3db"><path id="Path_95" data-name="Path 95" d="M24.215 16.892a10.082 10.082 0 002.6-6.876C26.818 5.039 23.263 0 16.467 0a10.136 10.136 0 00-7.716 3.141 10.108 10.108 0 00-2.59 6.874 9.833 9.833 0 0010.306 10.017 10.2 10.2 0 007.748-3.14zM16.467 4.657a5.165 5.165 0 015.419 5.362 5.444 5.444 0 01-1.332 3.662 5.225 5.225 0 01-4.027 1.633 5.228 5.228 0 01-5.557-5.362 5.111 5.111 0 015.497-5.295z" transform="translate(-6.161)"/><path id="Path_96" data-name="Path 96" d="M56.406 27.971a2.956 2.956 0 00-1.869.853L23.965 62.815a.643.643 0 00.5 1.1h4a2.869 2.869 0 001.867-.834L60.712 29.1c.411-.459.384-1.206-.634-1.206z" transform="translate(-21.384 -24.107)"/><path id="Path_97" data-name="Path 97" d="M175.248 175.822a9.607 9.607 0 00-10.11 9.825 9.646 9.646 0 0010.11 9.825 10.01 10.01 0 007.6-3.08 9.89 9.89 0 002.553-6.745c-.001-4.882-3.487-9.825-10.153-9.825zm.06 15.142a5.169 5.169 0 01-5.407-5.38 5.48 5.48 0 011.331-3.676 5.505 5.505 0 019.422 3.743 5.484 5.484 0 01-1.33 3.676 5.2 5.2 0 01-4.016 1.637z" transform="translate(-143.567 -151.966)"/></g></g></g></svg>