<svg xmlns="http://www.w3.org/2000/svg" width="201" height="47.3" viewBox="0 0 201 47.3">
  <g id="logogk-white" transform="translate(0 -5.1)">
    <g id="_1912327045040">
      <path id="Path_88" data-name="Path 88" d="M.2,37.5V7.7H6.8v23Z" fill="#fff" fill-rule="evenodd"/>
      <path id="Path_89" data-name="Path 89" d="M.2,7.7H29l-6.8,6.8H.2Z" fill="#fff" fill-rule="evenodd"/>
      <path id="Path_90" data-name="Path 90" d="M33.9,21.7,4.1,52.4l9.1-.1L33.9,30.8Z" fill="#fff" fill-rule="evenodd"/>
      <path id="Path_91" data-name="Path 91" d="M33.8,35.3l.1,17.1H17.7Z" fill="#fff" fill-rule="evenodd"/>
      <path id="Path_92" data-name="Path 92" d="M0,42.6V52L36.2,14.5V5.1Z" fill="#fff" fill-rule="evenodd"/>
      <path id="Path_93" data-name="Path 93" d="M60.2,24.1H48.8V44.7h4.6v-16h6.8V24.1Zm6.8,16h0V36.4h7.1V32H67V28.6h7.9V24.1H62.5V44.7H75V40.2H67Zm21.7-16h0V32H82.4V24.1H77.8V44.7h4.6V36.5h6.3v8.2h4.6V24.1Z" fill="#fff"/>
      <path id="Path_94" data-name="Path 94" d="M113.1,44.6l-7-10.5,6.7-10h-5.2L101.5,33V24.1H97V44.7h4.6V35.2l6.4,9.5h5.1Zm9.6-20.5h-7.6V44.7h4.6V38.3h3a7.1,7.1,0,0,0,0-14.2Zm0,9.7h-3V28.5h3a2.422,2.422,0,0,1,2.4,2.6A2.51,2.51,0,0,1,122.7,33.8Zm14.1,6.3h0V36.4h7.1V32h-7.1V28.6h7.8V24.1H132.2V44.7h12.5V40.2h-7.9Zm26.5,0h0v-16H150v9.2c0,3.5-.7,5.5-1.6,6.8h-2v8.5H151v-4h10v4h4.6V40.1Zm-10,0h0a14.342,14.342,0,0,0,1.3-6.8V28.4h4.2V40.1Zm26,4.5h4.6V24.1h-3.4l-7.7,11.2V24.1h-4.6V44.7h3.4l7.7-11.2ZM201,24.1H186.2v4.5h5.1v16h4.6v-16H201V24.1Z" fill="#fff"/>
    </g>
  </g>
</svg>
