<svg xmlns="http://www.w3.org/2000/svg" width="21.464" height="15.159" viewBox="0 0 21.464 15.159">
  <g id="mail-black-envelope-symbol" transform="translate(0 -60.651)">
    <path id="Контур_2" data-name="Контур 2" d="M21.464,73.283A2.393,2.393,0,0,1,21.12,74.5l-6.777-7.14,6.7-5.523a2.4,2.4,0,0,1,.418,1.342ZM10.732,68.655l9.328-7.685a2.778,2.778,0,0,0-1.279-.318H2.683a2.768,2.768,0,0,0-1.278.318Zm2.6-.465-2.159,1.78a.7.7,0,0,1-.883,0l-2.16-1.78L1.268,75.421a2.772,2.772,0,0,0,1.415.389h16.1a2.772,2.772,0,0,0,1.415-.389ZM.418,61.835A2.4,2.4,0,0,0,0,63.178V73.283A2.385,2.385,0,0,0,.345,74.5l6.776-7.141Z" fill="#fff"/>
  </g>
</svg>
