<svg xmlns="http://www.w3.org/2000/svg" width="49.608" height="44.423" viewBox="0 0 49.608 44.423">
  <g id="funds" transform="translate(0 -23.098)">
    <path id="Path_100" data-name="Path 100" d="M37.926,41.771c0-.009,0-.019,0-.028a1.107,1.107,0,0,0-.027-.135h0a1.118,1.118,0,0,0-.043-.124l-.015-.034c-.013-.029-.028-.058-.043-.087l-.021-.037-.011-.02c-.017-.026-.035-.051-.053-.076l-.01-.014a1.091,1.091,0,0,0-.09-.1L37.59,41.1a1.13,1.13,0,0,0-.086-.075L37.481,41a1.138,1.138,0,0,0-.124-.081l-16.535-9.4,9.52-5.995L46.3,34.6l-6.722,4.233a1.122,1.122,0,0,0,1.2,1.9L49.085,35.5a1.122,1.122,0,0,0-.043-1.925L30.868,23.244a1.122,1.122,0,0,0-1.153.026L18.047,30.617l-.007,0-5.83,3.671L12.2,34.3.527,41.65A1.122,1.122,0,0,0,.57,43.575L18.745,53.906A1.122,1.122,0,0,0,19.9,53.88l8.308-5.232a1.122,1.122,0,0,0-1.2-1.9l-7.74,4.874L3.309,42.55l9.52-5.995,17.023,9.676V59.046a1.122,1.122,0,0,0,1.72.95L37.41,56.32a1.122,1.122,0,0,0,.524-.95V41.9c0-.007,0-.013,0-.02Q37.932,41.827,37.926,41.771ZM32.1,57.014V45.578a1.122,1.122,0,0,0-.568-.976L14.985,35.2l3.683-2.319,15.96,9.072-1.4.88a1.122,1.122,0,1,0,1.2,1.9l1.264-.8V54.751Z" transform="translate(-0.002)" fill="#00b3db"/>
    <path id="Path_101" data-name="Path 101" d="M356.807,155.314l-8.308,5.232a1.122,1.122,0,1,0,1.2,1.9L358,157.214a1.122,1.122,0,1,0-1.2-1.9Z" transform="translate(-308.92 -117.224)" fill="#00b3db"/>
    <path id="Path_102" data-name="Path 102" d="M27.007,232.131,19.267,237l-17.59-10a1.122,1.122,0,0,0-1.109,1.951l18.175,10.331a1.122,1.122,0,0,0,1.153-.026L28.2,234.03a1.122,1.122,0,0,0-1.2-1.9Z" transform="translate(0 -180.892)" fill="#00b3db"/>
    <path id="Path_103" data-name="Path 103" d="M356.807,195.314l-8.308,5.232a1.122,1.122,0,1,0,1.2,1.9L358,197.213a1.122,1.122,0,1,0-1.2-1.9Z" transform="translate(-308.92 -152.734)" fill="#00b3db"/>
    <path id="Path_104" data-name="Path 104" d="M27.007,272.131,19.267,277l-17.59-10a1.122,1.122,0,0,0-1.109,1.951l18.175,10.331a1.122,1.122,0,0,0,1.153-.026L28.2,274.03a1.122,1.122,0,0,0-1.2-1.9Z" transform="translate(0 -216.403)" fill="#00b3db"/>
    <path id="Path_105" data-name="Path 105" d="M356.807,235.314l-8.308,5.232a1.122,1.122,0,1,0,1.2,1.9L358,237.214a1.122,1.122,0,1,0-1.2-1.9Z" transform="translate(-308.92 -188.246)" fill="#00b3db"/>
    <path id="Path_106" data-name="Path 106" d="M27.007,312.131,19.267,317l-17.59-10a1.122,1.122,0,0,0-1.109,1.951l18.175,10.331a1.122,1.122,0,0,0,1.153-.026L28.2,314.03a1.122,1.122,0,0,0-1.2-1.9Z" transform="translate(0 -251.914)" fill="#00b3db"/>
  </g>
</svg>
