<svg xmlns="http://www.w3.org/2000/svg" width="22.05" height="22" viewBox="0 0 22.05 22">
  <g id="call-answer" transform="translate(0 -0.394)">
    <g id="Сгруппировать_104" data-name="Сгруппировать 104" transform="translate(0 0.394)">
      <g id="Сгруппировать_103" data-name="Сгруппировать 103" transform="translate(0 0)">
        <path id="Контур_74" data-name="Контур 74" d="M21.555,17.794,18.15,14.389a1.776,1.776,0,0,0-2.5.047l-1.716,1.715-.339-.188a17.072,17.072,0,0,1-4.126-2.984A17.167,17.167,0,0,1,6.475,8.844c-.064-.115-.124-.226-.185-.331l1.151-1.15L8.008,6.8a1.774,1.774,0,0,0,.046-2.5L4.649.888a1.774,1.774,0,0,0-2.5.047l-.96.965.026.026A5.55,5.55,0,0,0,.421,3.321,5.783,5.783,0,0,0,.069,4.736C-.38,8.463,1.323,11.87,5.946,16.493c6.39,6.39,11.54,5.907,11.762,5.883a5.754,5.754,0,0,0,1.419-.356,5.531,5.531,0,0,0,1.39-.787l.021.019.972-.952A1.777,1.777,0,0,0,21.555,17.794Z" transform="translate(0 -0.394)" fill="#ffa53e"/>
      </g>
    </g>
  </g>
</svg>
