<svg xmlns="http://www.w3.org/2000/svg" width="61.003" height="47.124" viewBox="0 0 61.003 47.124">
  <g id="fast" transform="translate(0 -58.245)">
    <g id="Group_119" data-name="Group 119" transform="translate(3.299 72.871)">
      <g id="Group_118" data-name="Group 118">
        <rect id="Rectangle_68" data-name="Rectangle 68" width="7.006" height="3.574" fill="#00b3db"/>
      </g>
    </g>
    <g id="Group_121" data-name="Group 121" transform="translate(3.299 87.169)">
      <g id="Group_120" data-name="Group 120">
        <rect id="Rectangle_69" data-name="Rectangle 69" width="7.006" height="3.574" fill="#00b3db"/>
      </g>
    </g>
    <g id="Group_123" data-name="Group 123" transform="translate(0 80.02)">
      <g id="Group_122" data-name="Group 122">
        <rect id="Rectangle_70" data-name="Rectangle 70" width="10.305" height="3.574" fill="#00b3db"/>
      </g>
    </g>
    <g id="Group_125" data-name="Group 125" transform="translate(13.879 58.245)">
      <g id="Group_124" data-name="Group 124">
        <path id="Path_98" data-name="Path 98" d="M140.051,58.245a23.562,23.562,0,1,0,23.562,23.562A23.589,23.589,0,0,0,140.051,58.245Zm0,43.55a19.988,19.988,0,1,1,19.988-19.988A20.01,20.01,0,0,1,140.051,101.795Z" transform="translate(-116.489 -58.245)" fill="#00b3db"/>
      </g>
    </g>
    <g id="Group_127" data-name="Group 127" transform="translate(35.021 71.15)">
      <g id="Group_126" data-name="Group 126">
        <path id="Path_99" data-name="Path 99" d="M297.5,178.1V166.557H293.93v13.435l9.211,6.277,2.013-2.954Z" transform="translate(-293.93 -166.557)" fill="#00b3db"/>
      </g>
    </g>
  </g>
</svg>
