<svg xmlns="http://www.w3.org/2000/svg" width="41.835" height="43.507" viewBox="0 0 41.835 43.507">
  <g id="percentage-discount" transform="translate(-6.161)">
    <g id="Layer_5_90_" transform="translate(6.161)">
      <g id="Group_117" data-name="Group 117" transform="translate(0)">
        <path id="Path_95" data-name="Path 95" d="M24.215,16.892a10.082,10.082,0,0,0,2.6-6.876C26.818,5.039,23.263,0,16.467,0A10.136,10.136,0,0,0,8.751,3.141a10.108,10.108,0,0,0-2.59,6.874A9.833,9.833,0,0,0,16.467,20.032,10.2,10.2,0,0,0,24.215,16.892ZM16.467,4.657a5.165,5.165,0,0,1,5.419,5.362,5.444,5.444,0,0,1-1.332,3.662,5.225,5.225,0,0,1-4.027,1.633A5.228,5.228,0,0,1,10.97,9.952,5.111,5.111,0,0,1,16.467,4.657Z" transform="translate(-6.161)" fill="#00b3db"/>
        <path id="Path_96" data-name="Path 96" d="M56.406,27.971a2.956,2.956,0,0,0-1.869.853L23.965,62.815a.643.643,0,0,0,.5,1.1h4a2.869,2.869,0,0,0,1.867-.834L60.712,29.1c.411-.459.384-1.206-.634-1.206Z" transform="translate(-21.384 -24.107)" fill="#00b3db"/>
        <path id="Path_97" data-name="Path 97" d="M175.248,175.822a9.607,9.607,0,0,0-10.11,9.825,9.646,9.646,0,0,0,10.11,9.825,10.01,10.01,0,0,0,7.6-3.08,9.89,9.89,0,0,0,2.553-6.745C185.4,180.765,181.914,175.822,175.248,175.822Zm.06,15.142a5.169,5.169,0,0,1-5.407-5.38,5.48,5.48,0,0,1,1.331-3.676,5.505,5.505,0,0,1,9.422,3.743,5.484,5.484,0,0,1-1.33,3.676A5.2,5.2,0,0,1,175.308,190.964Z" transform="translate(-143.567 -151.966)" fill="#00b3db"/>
      </g>
    </g>
  </g>
</svg>
