<?xml version="1.0" encoding="UTF-8"?>
<!DOCTYPE svg PUBLIC "-//W3C//DTD SVG 1.1//EN" "http://www.w3.org/Graphics/SVG/1.1/DTD/svg11.dtd">
<!-- Creator: CorelDRAW X7 -->
<svg xmlns="http://www.w3.org/2000/svg" xml:space="preserve" width="201px" height="58px" version="1.1" style="shape-rendering:geometricPrecision; text-rendering:geometricPrecision; image-rendering:optimizeQuality; fill-rule:evenodd; clip-rule:evenodd"
viewBox="0 0 20100 5782"
 xmlns:xlink="http://www.w3.org/1999/xlink">
 <defs>
  <style type="text/css">
   <![CDATA[
    .fil0 {fill:#0076AE}
    .fil1 {fill:#00B3DB}
    .fil4 {fill:#B2B3B3;fill-rule:nonzero}
    .fil2 {fill:#0076AE;fill-rule:nonzero}
    .fil3 {fill:#00B3DB;fill-rule:nonzero}
   ]]>
  </style>
 </defs>
 <g id="Слой_x0020_1">
  <metadata id="CorelCorpID_0Corel-Layer"/>
  <g id="_1912327045040">
   <polygon class="fil0" points="18,3233 18,257 680,257 680,2557 "/>
   <polygon class="fil0" points="18,257 2898,257 2224,939 18,939 "/>
   <polygon class="fil0" points="3385,1654 412,4732 1324,4719 3385,2568 "/>
   <polygon class="fil0" points="3378,3014 3385,4726 1773,4732 "/>
   <polygon class="fil1" points="0,3748 0,4687 3622,940 3622,0 "/>
   <path class="fil2" d="M6016 1895l-1140 0 0 2056 457 0 0 -1605 683 0 0 -451zm686 1605l0 0 0 -366 714 0 0 -447 -714 0 0 -341 786 0 0 -451 -1243 0 0 2056 1257 0 0 -451 -800 0zm2169 -1605l0 0 0 787 -629 0 0 -787 -457 0 0 2056 457 0 0 -817 629 0 0 817 457 0 0 -2056 -457 0z"/>
   <path class="fil3" d="M11313 3951l-702 -1055 674 -1001 -519 0 -612 893 0 -893 -457 0 0 2056 457 0 0 -952 640 952 519 0zm955 -2056l0 0 -755 0 0 2056 455 0 0 -645 300 0c395,0 700,-314 700,-707 0,-390 -305,-704 -700,-704zm0 969l0 0 -300 0 0 -530 300 0c140,0 243,115 243,265 0,150 -103,265 -243,265zm1412 636l0 0 0 -366 714 0 0 -447 -714 0 0 -341 785 0 0 -451 -1240 0 0 2056 1254 0 0 -451 -799 0zm2654 0l0 0 0 -1605 -1338 0 0 922c0,349 -67,548 -157,683l-202 0 0 846 457 0 0 -395 997 0 0 395 457 0 0 -846 -214 0zm-1009 0l0 0c71,-133 128,-339 128,-678l0 -488 424 0 0 1166 -552 0zm2606 451l0 0 457 0 0 -2056 -342 0 -769 1116 0 -1116 -457 0 0 2056 342 0 769 -1116 0 1116zm2169 -2056l0 0 -1483 0 0 451 514 0 0 1605 455 0 0 -1605 514 0 0 -451z"/>
   <path class="fil4" d="M9879 5429c7,-65 27,-124 59,-178 32,-54 72,-95 120,-123 48,-27 100,-41 156,-40 55,1 102,16 141,46 39,29 68,69 86,120 17,51 24,107 18,169l-1 12c-13,105 -50,190 -113,254 -62,63 -137,94 -224,92 -75,-1 -135,-29 -180,-82 -44,-54 -67,-126 -66,-214l2 -35 2 -21zm72 21c-6,49 -2,94 10,135 13,41 33,74 61,97 27,24 61,36 103,37 44,1 85,-10 122,-34 37,-23 67,-56 91,-99 24,-43 39,-90 46,-142l2 -20c7,-80 -5,-145 -37,-195 -32,-50 -78,-76 -138,-77 -66,-3 -123,23 -171,76 -48,53 -77,123 -88,211l-1 11zm862 269c49,2 92,-11 129,-40 38,-29 62,-68 75,-116l69 0c-12,66 -44,120 -97,160 -52,41 -112,60 -179,58 -54,-1 -99,-16 -136,-44 -37,-29 -63,-68 -79,-118 -17,-50 -22,-107 -16,-170l2 -26c5,-43 16,-85 32,-126 16,-41 38,-77 65,-108 28,-32 60,-57 97,-75 38,-18 81,-27 128,-26 68,2 123,25 163,69 40,45 59,101 57,169l-70 0c1,-51 -13,-93 -40,-124 -28,-32 -65,-49 -113,-50 -51,-2 -96,13 -135,44 -39,31 -69,75 -89,133 -19,57 -29,118 -27,182 1,66 16,117 44,153 29,35 69,54 120,55zm879 50l-74 0 54 -306 -348 0 -53 306 -74 0 117 -668 73 0 -52 300 347 0 53 -300 73 0 -116 668zm214 -340c7,-65 27,-124 59,-178 32,-54 72,-95 120,-123 48,-27 100,-41 156,-40 55,1 102,16 141,46 39,29 67,69 85,120 18,51 24,107 19,169l-2 12c-12,105 -49,190 -112,254 -62,63 -137,94 -224,92 -75,-1 -135,-29 -180,-82 -45,-54 -67,-126 -66,-214l2 -35 2 -21zm71 21c-5,49 -2,94 11,135 13,41 33,74 60,97 28,24 62,36 103,37 45,1 86,-10 122,-34 37,-23 68,-56 91,-99 24,-43 40,-90 47,-142l2 -20c7,-80 -5,-145 -37,-195 -32,-50 -78,-76 -139,-77 -66,-3 -123,23 -170,76 -49,53 -78,123 -89,211l-1 11zm612 319l116 -668 223 1c81,0 142,15 184,45 41,30 60,72 56,127 -3,36 -16,66 -40,93 -24,26 -57,46 -100,61 37,9 65,28 86,56 20,29 29,60 27,95 -4,59 -29,105 -77,139 -47,34 -111,51 -191,51l-284 0zm127 -308l-43 246 203 0c55,0 100,-11 135,-34 34,-23 53,-55 57,-96 5,-35 -6,-62 -32,-83 -25,-20 -62,-31 -109,-32l-211 -1zm10 -62l178 2c58,-2 103,-13 136,-35 33,-22 51,-52 55,-90 8,-74 -46,-111 -162,-111l-166 -1 -41 235zm963 370c-2,-16 -3,-31 -2,-47l6 -46c-31,33 -66,59 -106,78 -40,19 -83,28 -129,27 -56,0 -102,-18 -137,-53 -36,-35 -51,-79 -48,-132 4,-44 19,-82 46,-114 27,-33 65,-58 115,-76 50,-18 105,-27 167,-27l137 1 11 -77c5,-46 -5,-82 -30,-110 -24,-28 -61,-42 -109,-44 -49,-1 -91,11 -127,36 -36,25 -59,58 -68,99l-72 0c8,-58 38,-106 90,-143 52,-37 113,-55 184,-54 69,2 122,23 159,62 37,40 53,92 46,156l-56 336 -5 54c-1,22 1,44 5,66l-1 8 -76 0zm-219 -52c46,2 89,-9 130,-33 42,-23 76,-56 103,-100l26 -148 -119 -1c-74,0 -135,14 -183,41 -47,26 -73,64 -78,114 -4,37 6,67 28,90 23,24 54,36 93,37zm966 52l-74 0 54 -306 -348 0 -53 306 -73 0 116 -668 73 0 -52 300 347 0 53 -300 73 0 -116 668zm611 0c-2,-16 -2,-31 -2,-47l6 -46c-31,33 -66,59 -106,78 -39,19 -82,28 -129,27 -56,0 -102,-18 -137,-53 -35,-35 -51,-79 -47,-132 3,-44 18,-82 45,-114 27,-33 66,-58 115,-76 50,-18 106,-27 168,-27l136 1 11 -77c5,-46 -5,-82 -29,-110 -25,-28 -61,-42 -110,-44 -48,-1 -90,11 -127,36 -36,25 -58,58 -67,99l-72 0c8,-58 38,-106 90,-143 52,-37 113,-55 184,-54 69,2 122,23 159,62 37,40 52,92 45,156l-55 336 -5 54c-2,22 0,44 5,66l-2 8 -76 0zm-218 -52c45,2 88,-9 130,-33 41,-23 76,-56 103,-100l25 -148 -118 -1c-75,0 -136,14 -183,41 -48,26 -74,64 -79,114 -4,37 6,67 29,90 23,24 54,36 93,37zm778 52l116 -668 223 1c81,0 142,15 184,45 41,30 60,72 56,127 -3,36 -16,66 -40,93 -24,26 -57,46 -100,61 37,9 66,28 86,56 20,29 29,60 27,95 -4,59 -29,105 -76,139 -48,34 -112,51 -192,51l-284 0zm127 -308l-43 246 203 0c56,0 100,-11 135,-34 34,-23 54,-55 58,-96 4,-35 -7,-62 -32,-83 -26,-20 -62,-31 -110,-32l-211 -1zm10 -62l178 2c58,-2 103,-13 136,-35 33,-22 52,-52 55,-90 8,-74 -46,-111 -162,-111l-166 -1 -41 235zm1395 370l-548 0 9 -60 389 -385c82,-82 127,-157 135,-223 7,-51 -4,-94 -31,-128 -27,-34 -67,-51 -120,-53 -58,-2 -108,17 -150,55 -41,38 -68,89 -78,154l-71 0c9,-80 42,-146 98,-197 55,-51 123,-76 203,-75 75,2 132,25 173,69 41,44 58,100 51,169 -8,81 -59,168 -153,263l-353 349 456 0 -10 62zm398 12c-48,-1 -89,-14 -122,-38 -34,-24 -58,-60 -73,-107 -15,-46 -22,-99 -20,-156l4 -67 26 -175c20,-126 57,-221 112,-286 55,-66 128,-97 217,-95 73,2 127,28 164,81 36,52 53,124 51,218 -1,30 -3,58 -7,86l-25 159c-21,131 -60,228 -116,290 -55,63 -126,93 -211,90zm287 -682c-8,-117 -58,-177 -147,-180 -66,-2 -121,23 -163,77 -43,53 -72,130 -87,232l-27 174c-6,50 -8,94 -6,133 4,59 18,104 43,135 26,32 60,48 104,49 62,3 114,-20 156,-69 42,-50 72,-123 89,-221l30 -190c8,-50 11,-97 8,-140zm399 682c-48,-1 -89,-14 -122,-38 -34,-24 -58,-60 -73,-107 -15,-46 -22,-99 -20,-156l4 -67 26 -175c20,-126 57,-221 112,-286 55,-66 128,-97 217,-95 73,2 128,28 164,81 36,52 53,124 51,218 -1,30 -3,58 -7,86l-25 159c-21,131 -60,228 -116,290 -55,63 -126,93 -211,90zm287 -682c-8,-117 -57,-177 -147,-180 -66,-2 -121,23 -163,77 -43,53 -72,130 -87,232l-27 174c-6,50 -8,94 -5,133 3,59 17,104 42,135 26,32 60,48 104,49 62,3 114,-20 156,-69 42,-50 72,-123 90,-221l29 -190c8,-50 11,-97 8,-140zm399 682c-48,-1 -89,-14 -122,-38 -33,-24 -58,-60 -73,-107 -15,-46 -22,-99 -20,-156l4 -67 27 -175c19,-126 56,-221 111,-286 55,-66 128,-97 217,-95 73,2 128,28 164,81 37,52 53,124 51,218 -1,30 -3,58 -7,86l-25 159c-21,131 -60,228 -116,290 -55,63 -125,93 -211,90zm287 -682c-8,-117 -57,-177 -147,-180 -66,-2 -121,23 -163,77 -43,53 -71,130 -87,232l-27 174c-6,50 -8,94 -5,133 3,59 17,104 42,135 26,32 61,48 105,49 61,3 113,-20 155,-69 42,-50 72,-123 90,-221l29 -190c8,-50 11,-97 8,-140zm655 66l-328 0 -105 604 -73 0 116 -668 401 0 -11 64zm14 559c1,-14 7,-27 17,-37 11,-10 23,-15 37,-16 15,0 27,5 37,15 9,11 14,23 12,38 -1,15 -6,27 -17,36 -10,9 -23,14 -37,14 -14,1 -26,-4 -36,-13 -10,-10 -14,-22 -13,-37z"/>
  </g>
 </g>
</svg>
